<?xml version="1.0" encoding="iso-8859-1"?>
<!-- Generator: Adobe Illustrator 16.0.0, SVG Export Plug-In . SVG Version: 6.00 Build 0)  -->
<!DOCTYPE svg PUBLIC "-//W3C//DTD SVG 1.1//EN" "http://www.w3.org/Graphics/SVG/1.1/DTD/svg11.dtd">
<svg version="1.1" id="Capa_1" xmlns="http://www.w3.org/2000/svg" xmlns:xlink="http://www.w3.org/1999/xlink" x="0px" y="0px"
	 width="65.403px" height="65.402px" viewBox="0 0 65.403 65.402" style="enable-background:new 0 0 65.403 65.402;"
	 xml:space="preserve">
<g>
	<g>
		<path d="M20.116,33.687c-1.892-0.146-2.466,1.718-2.644,4.059c-0.187,2.34,0.093,4.272,1.985,4.423
			c1.888,0.146,3.952-1.604,4.142-3.941C23.782,35.881,22.006,33.833,20.116,33.687z"/>
		<path d="M19.623,30.06c2.033,1.186,5.291,0.343,6.76-2.18c1.462-2.521,0.583-5.768-1.449-6.954
			c-2.039-1.182-3.685,0.595-5.149,3.118C18.315,26.567,17.584,28.875,19.623,30.06z"/>
		<path d="M24.807,34.538c0.974,1.129,1.413,2.895,1.006,4.732c-0.411,1.839-1.55,3.26-2.914,3.869c1.712,0,3.349-1.506,3.825-3.668
			C27.201,37.313,26.36,35.256,24.807,34.538z"/>
		<path d="M27.759,30.373c-0.754,0.92-1.744,1.437-2.604,1.459c0.85,0.393,2.116-0.058,2.994-1.139
			c0.884-1.08,1.076-2.404,0.521-3.161C28.817,28.377,28.511,29.452,27.759,30.373z"/>
		<path d="M33.618,24.668c3.244,0,5.875-2.666,5.875-5.286c0-2.621-2.631-3.209-5.875-3.209c-3.25,0-5.882,0.588-5.882,3.209
			C27.736,22.003,30.368,24.668,33.618,24.668z"/>
		<path d="M39.119,29.018c1.033,2.73,4.112,4.095,6.313,3.261s1.861-3.234,0.828-5.96c-1.035-2.735-2.37-4.75-4.576-3.92
			C39.486,23.237,38.084,26.296,39.119,29.018z"/>
		<path d="M32.702,0C14.641,0,0,14.641,0,32.701c0,18.062,14.639,32.701,32.702,32.701c18.062,0,32.701-14.64,32.701-32.701
			C65.403,14.641,50.763,0,32.702,0z M41.986,49.682c-4.887,2.778-12.748,2.778-19.171,0.479c-6.421-2.3-9.161-12.779-5.307-18.653
			c-4.597-6.662,2.242-14.795,8.089-13.189c3.976-7.737,16.385-4.576,15.522,2.226c8.545-0.575,8.545,9.778,7.094,11.501
			C52.337,39.424,46.867,46.901,41.986,49.682z"/>
		<path d="M39.376,39.937c-0.406-1.838,0.029-3.604,1.006-4.735c-1.554,0.724-2.394,2.778-1.919,4.941
			c0.479,2.157,2.115,3.663,3.823,3.663C40.922,43.192,39.785,41.777,39.376,39.937z"/>
		<path d="M45.747,34.608c-1.891-0.137-3.952,1.619-4.126,3.965c-0.167,2.34,1.608,4.379,3.499,4.519
			c1.896,0.137,2.459-1.729,2.628-4.067C47.925,36.68,47.633,34.754,45.747,34.608z"/>
		<path d="M41.746,33.545c-1.177-0.137-2.449-0.789-3.325-1.82c-0.876-1.035-1.111-2.17-0.765-3.016
			c-0.894,0.698-0.855,2.082,0.169,3.294C38.851,33.215,40.507,33.837,41.746,33.545z"/>
		<path d="M38.103,25.075c-0.898,1.199-2.527,2.004-4.409,2.004c-1.884,0-3.515-0.808-4.409-2.004
			c0.371,1.668,2.198,2.939,4.409,2.939C35.909,28.014,37.734,26.743,38.103,25.075z"/>
	</g>
</g>
<g>
</g>
<g>
</g>
<g>
</g>
<g>
</g>
<g>
</g>
<g>
</g>
<g>
</g>
<g>
</g>
<g>
</g>
<g>
</g>
<g>
</g>
<g>
</g>
<g>
</g>
<g>
</g>
<g>
</g>
</svg>
